<?xml version="1.0" encoding="utf-8"?>
<!-- Generator: Adobe Illustrator 24.0.2, SVG Export Plug-In . SVG Version: 6.00 Build 0)  -->
<svg version="1.1" id="Layer_1" xmlns="http://www.w3.org/2000/svg" xmlns:xlink="http://www.w3.org/1999/xlink" x="0px" y="0px"
	 viewBox="0 0 125.35 49.22" style="enable-background:new 0 0 125.35 49.22;" xml:space="preserve">
<style type="text/css">
	.st0{fill:#C84E2F;}
	.st1{fill:#00618A;}
	.st2{fill:#00628C;}
</style>
<g>
	<path class="st0" d="M21.32,35.76C24.6,46.84,32,46.04,32,46.04c-3.18-2.09-5.17-10.48-8.94-22.26c-2.54-7.92-6.34-9.79-8.55-10.17
		c-0.38,0.2-0.76,0.4-1.14,0.58C16.69,17.63,18.23,25.33,21.32,35.76z"/>
	<path class="st1" d="M32.14,26.95c-0.05-0.14-0.09-0.28-0.14-0.42c-0.5,0.1-1,0.18-1.5,0.22c-0.8,0.07-1.61,0.12-2.4-0.04
		c0.39-0.04,0.77-0.14,1.15-0.25c0.38-0.1,0.75-0.22,1.11-0.36c0.44-0.16,0.88-0.33,1.31-0.52c-3.82-10.28-9.86-8.82-9.86-8.82
		c3.78,3.08,5.32,11.08,8.6,22.16C33.68,50,41.08,49.21,41.08,49.21C37.9,47.12,35.91,38.72,32.14,26.95z"/>
	<path class="st0" d="M42.56,4.52c1.05,1.16,1.98,2.39,2.7,3.68c0.72,1.3,1.25,2.65,1.56,4.05c0.15,0.7,0.26,1.4,0.3,2.12
		c0.05,0.71,0.05,1.45,0,2.14c-0.11,1.4-0.44,2.75-1.03,4.01c-0.58,1.27-1.42,2.45-2.43,3.54c-1.01,1.09-2.2,2.06-3.5,2.95
		c-0.65,0.44-1.32,0.86-2.02,1.25c-0.35,0.19-0.71,0.38-1.07,0.56c-0.37,0.18-0.73,0.35-1.13,0.46c0.83,0.15,1.7,0.05,2.53-0.07
		c0.84-0.13,1.66-0.35,2.48-0.62c1.62-0.55,3.18-1.35,4.6-2.43c1.41-1.07,2.66-2.45,3.57-4.07c0.91-1.62,1.46-3.46,1.59-5.3
		c0.07-0.93,0.05-1.82-0.05-2.73c-0.11-0.9-0.28-1.8-0.55-2.67c-0.53-1.74-1.4-3.37-2.52-4.75c-1.11-1.39-2.45-2.54-3.9-3.45
		C42.94,2.72,42.19,2.32,41.41,2C40.63,1.67,39.83,1.4,39,1.25C40.32,2.27,41.5,3.36,42.56,4.52z"/>
	<path class="st2" d="M29.24,26.46c-0.38,0.11-0.75,0.21-1.15,0.25c0.79,0.16,1.6,0.11,2.4,0.04c0.5-0.05,1-0.12,1.5-0.22
		c0.3-0.06,0.59-0.12,0.89-0.19c1.57-0.39,3.11-1,4.54-1.86c1.43-0.86,2.74-1.99,3.77-3.38c0.51-0.7,0.95-1.46,1.29-2.26
		c0.34-0.8,0.59-1.65,0.74-2.5c0.15-0.86,0.21-1.71,0.19-2.56c-0.02-0.86-0.11-1.71-0.3-2.55c-0.37-1.67-1.08-3.25-2.03-4.63
		c-0.95-1.38-2.12-2.57-3.41-3.55c-0.65-0.49-1.32-0.94-2.03-1.33c-0.7-0.39-1.43-0.74-2.19-0.99c0,0,0,0,0.01,0
		c0.81,0.41,1.57,1.01,2.28,1.83c0,0-0.06-0.01-0.18-0.02c0.46,0.44,0.9,0.89,1.32,1.36c1.02,1.14,1.92,2.36,2.6,3.67
		c0.69,1.3,1.18,2.68,1.41,4.09c0.11,0.71,0.18,1.42,0.17,2.13c-0.01,0.72-0.06,1.44-0.19,2.13c-0.12,0.69-0.31,1.37-0.57,2.02
		c-0.25,0.65-0.58,1.27-0.97,1.86c-0.77,1.18-1.8,2.22-2.97,3.13c-1.17,0.9-2.49,1.66-3.88,2.31c-0.27,0.13-0.55,0.24-0.83,0.36
		c-0.43,0.18-0.87,0.35-1.31,0.52C29.99,26.23,29.62,26.35,29.24,26.46z"/>
	<path class="st0" d="M33.47,0.72C28-2.06,20.29,3.76,12.73,8.6C4.04,14.17,0,14.22,0,14.22c4.16,3.01,8.84,2.16,13.37-0.03
		c0.38-0.18,0.76-0.38,1.14-0.58c3.88-2.06,7.6-4.95,10.73-7.05c6.14-4.11,9.55-4.11,10.33-4.04c0.12,0.01,0.18,0.02,0.18,0.02
		C35.05,1.73,34.28,1.14,33.47,0.72z"/>
	<path class="st1" d="M41.42,34.86c1.11,0,2.09-0.21,2.94-0.64c0.44-0.21,0.81-0.52,1.09-0.91c0.28-0.39,0.45-0.85,0.5-1.37v-0.15
		c0-0.47-0.18-0.85-0.55-1.16c-0.37-0.31-0.91-0.46-1.63-0.46h-3c-0.4,0-0.74,0.03-1.01,0.08c-0.27,0.06-0.55,0.2-0.83,0.44
		c-0.28,0.24-0.5,0.57-0.65,1.01c-0.02,0.06-0.02,0.1-0.02,0.12c0,0.1,0.04,0.15,0.11,0.15c0.02,0,0.04-0.01,0.05-0.04
		c0.11-0.36,0.51-0.66,1.2-0.92c0.69-0.26,1.37-0.39,2.04-0.41c-0.28,0.31-0.89,1.59-1.84,3.86c-0.71,1.7-1.18,3.03-1.4,3.99h1.53
		c-0.03-0.06-0.05-0.14-0.05-0.26c0-0.58,0.33-1.7,0.98-3.36C41.05,34.85,41.23,34.86,41.42,34.86z M41.2,34.05
		c0.74-1.71,1.37-2.89,1.89-3.54c1.09,0.07,1.63,0.56,1.63,1.46c0,0.56-0.18,1.05-0.54,1.45c-0.36,0.41-0.83,0.71-1.39,0.91
		c-0.56,0.2-1.13,0.3-1.7,0.3h-0.14L41.2,34.05z"/>
	<path class="st1" d="M47.2,32.33c0.15-0.13,0.3-0.2,0.46-0.2h0.05c0.15-0.09,0.22-0.2,0.22-0.33c0-0.12-0.04-0.22-0.13-0.3
		c-0.09-0.08-0.22-0.12-0.39-0.12c-0.17,0-0.36,0.1-0.54,0.31c-0.19,0.21-0.28,0.42-0.28,0.62c0,0.21,0.1,0.35,0.31,0.43
		C46.95,32.6,47.05,32.47,47.2,32.33z"/>
	<path class="st1" d="M46.79,36.29c-0.15,0.24-0.28,0.43-0.4,0.59c-0.12,0.15-0.27,0.3-0.46,0.44c-0.19,0.14-0.33,0.21-0.43,0.21
		c-0.15,0-0.22-0.11-0.22-0.34c0-0.23,0.07-0.53,0.2-0.89c0.13-0.36,0.25-0.65,0.35-0.87c0.1-0.21,0.26-0.53,0.47-0.95
		c0.21-0.42,0.38-0.68,0.5-0.77h-0.12l-0.59-0.01c-0.34,0-0.65,0.24-0.92,0.71c-0.66,1.16-0.98,2.22-0.98,3.18
		c0,0.62,0.22,0.93,0.66,0.93c0.25,0,0.53-0.12,0.84-0.37c0.31-0.24,0.58-0.53,0.82-0.86c0.11-0.16,0.24-0.33,0.36-0.53
		c0.03-0.34,0.11-0.66,0.24-0.98C47.02,35.93,46.91,36.1,46.79,36.29z"/>
	<path class="st1" d="M50.06,34.9c-0.2,0.09-0.3,0.18-0.3,0.27c0,0.29,0.18,0.44,0.53,0.44c0.18,0,0.34-0.09,0.49-0.28
		c0.14-0.19,0.21-0.41,0.21-0.67c0-0.26-0.11-0.48-0.32-0.66c-0.21-0.19-0.5-0.28-0.85-0.28c-0.8,0-1.49,0.35-2.08,1.04
		c-0.28,0.33-0.49,0.67-0.63,1.02c-0.13,0.31-0.21,0.64-0.24,0.98c-0.01,0.09-0.01,0.19-0.01,0.28c0,0.45,0.12,0.82,0.37,1.1
		c0.25,0.28,0.65,0.42,1.21,0.42c0.56,0,1.01-0.13,1.36-0.38c0.21-0.15,0.37-0.28,0.51-0.39c0.13-0.11,0.29-0.29,0.47-0.55
		c0.18-0.25,0.31-0.44,0.38-0.55c0.06-0.09,0.14-0.22,0.23-0.38c-0.01,0.01-0.01,0.02-0.02,0.03c-0.11,0.13-0.17,0.2-0.18,0.2
		c-0.03,0-0.05-0.05-0.05-0.15c0-0.1,0.05-0.26,0.16-0.48c0.05-0.1,0.11-0.22,0.17-0.35c-0.02,0.03-0.03,0.06-0.06,0.09
		c-0.1,0.17-0.22,0.37-0.37,0.61c-0.74,1.21-1.5,1.81-2.29,1.81c-0.56,0-0.84-0.32-0.84-0.97c0-0.64,0.23-1.31,0.7-2
		c0.47-0.69,0.94-1.03,1.41-1.03c0.22,0,0.33,0.1,0.33,0.31c0,0.14-0.03,0.26-0.09,0.34C50.21,34.81,50.14,34.87,50.06,34.9z"/>
	<path class="st1" d="M51.15,36.39c0,0.1,0.02,0.15,0.05,0.15c0.02,0,0.08-0.07,0.18-0.2c0.01-0.01,0.01-0.02,0.02-0.03
		c0.1-0.13,0.22-0.33,0.37-0.59v0.01c-0.25,0.69-0.38,1.3-0.38,1.83c0,0.63,0.23,0.95,0.68,0.95c0.24,0,0.52-0.12,0.82-0.37
		c0.3-0.24,0.56-0.51,0.77-0.79c0.17-0.23,0.32-0.44,0.44-0.62c0.06-0.23,0.13-0.5,0.22-0.81c0.03-0.11,0.07-0.21,0.11-0.31
		c-0.09,0.15-0.24,0.37-0.43,0.68c-0.14,0.25-0.26,0.42-0.34,0.52c-0.37,0.47-0.69,0.71-0.97,0.71c-0.19,0-0.28-0.15-0.28-0.45
		c0-0.44,0.31-1.44,0.94-2.99h1.02c0.06,0,0.14-0.05,0.23-0.15c0.09-0.1,0.13-0.17,0.13-0.21l-0.01-0.01h-1.2
		c0.48-1.11,0.92-1.8,1.3-2.06c-0.04,0.01-0.23,0.01-0.57,0.01c-0.58,0-1.16,0.68-1.73,2.05h-0.9c-0.03,0-0.08,0.04-0.14,0.13
		c-0.06,0.09-0.09,0.15-0.09,0.18c0,0.04,0.01,0.05,0.04,0.05h0.79c-0.12,0.29-0.27,0.62-0.46,0.97c-0.1,0.19-0.19,0.36-0.26,0.51
		c-0.07,0.13-0.13,0.25-0.17,0.35C51.2,36.13,51.15,36.29,51.15,36.39z"/>
	<path class="st1" d="M54.09,36.72c-0.08,0.34-0.12,0.61-0.12,0.8c0,0.32,0.06,0.57,0.18,0.74c0.12,0.17,0.28,0.25,0.48,0.25
		c0.67,0,1.38-0.53,2.12-1.58c-0.03,0.19-0.05,0.39-0.05,0.59c0,0.66,0.22,0.98,0.66,0.98c0.63,0,1.4-0.75,2.33-2.25
		c-0.01,0.01-0.02,0.02-0.02,0.02c-0.04,0-0.06-0.07-0.06-0.2c0-0.11,0.04-0.27,0.12-0.47c-0.01,0.02-0.02,0.03-0.03,0.04
		c-0.11,0.17-0.23,0.38-0.38,0.62c-0.15,0.24-0.28,0.44-0.41,0.6c-0.13,0.16-0.28,0.31-0.46,0.44c-0.18,0.13-0.32,0.2-0.42,0.2
		c-0.16,0-0.24-0.12-0.24-0.36c0-0.4,0.21-1.04,0.62-1.94c0.41-0.9,0.73-1.42,0.95-1.57c-0.03,0.01-0.11,0.01-0.23,0.01l-0.57-0.01
		c-0.27,0-0.55,0.23-0.84,0.69c-0.06,0.09-0.25,0.46-0.6,1.13c-0.34,0.67-0.67,1.21-0.97,1.63c-0.3,0.42-0.56,0.63-0.78,0.63
		c-0.22,0-0.33-0.15-0.33-0.45c0-0.51,0.26-1.3,0.78-2.38c0.23-0.46,0.44-0.82,0.64-1.09h-0.57c-0.25,0-0.42,0.01-0.52,0.04
		c-0.09,0.03-0.18,0.1-0.25,0.22c-0.28,0.41-0.53,0.93-0.73,1.53c-0.04,0.1-0.07,0.21-0.11,0.31
		C54.22,36.22,54.14,36.49,54.09,36.72z"/>
	<path class="st1" d="M59.67,36.28c0,0,0.01-0.01,0.02-0.02c0.09-0.1,0.38-0.65,0.88-1.64c0.09,0.04,0.19,0.06,0.27,0.06
		c0.28,0,0.55-0.11,0.83-0.33c-0.34,0.53-0.6,1.08-0.77,1.65c-0.17,0.57-0.26,1.08-0.26,1.53c0,0.66,0.23,1,0.68,1
		c0.25,0,0.53-0.12,0.85-0.37c0.31-0.25,0.58-0.52,0.8-0.82c0.11-0.15,0.24-0.35,0.39-0.57c0.03-0.34,0.11-0.67,0.24-0.99
		c-0.09,0.16-0.2,0.33-0.32,0.52c-0.15,0.24-0.28,0.44-0.4,0.59c-0.12,0.15-0.28,0.3-0.46,0.44c-0.19,0.14-0.33,0.21-0.43,0.22
		c-0.16,0-0.24-0.11-0.24-0.34c0-0.23,0.07-0.53,0.2-0.9c0.13-0.37,0.25-0.66,0.36-0.88c0.11-0.22,0.27-0.54,0.49-0.97
		c0.22-0.43,0.38-0.68,0.5-0.77h-0.12l-0.6-0.01c-0.28,0-0.56,0.2-0.84,0.59c-0.03,0.01-0.08,0.01-0.14,0.01
		c-0.22,0-0.41-0.06-0.56-0.18c-0.15-0.12-0.23-0.29-0.23-0.5c0-0.09,0.01-0.17,0.02-0.21c-0.11-0.11-0.25-0.17-0.43-0.17
		c-0.17,0-0.31,0.06-0.41,0.19c-0.1,0.13-0.15,0.27-0.15,0.43c0,0.32,0.14,0.55,0.43,0.69c-0.01,0.02-0.07,0.14-0.18,0.36
		c-0.11,0.21-0.22,0.44-0.32,0.67c-0.01,0.03-0.02,0.05-0.03,0.08c-0.08,0.19-0.12,0.35-0.12,0.47
		C59.6,36.22,59.62,36.28,59.67,36.28z"/>
	<path class="st1" d="M63.34,36.99c0,0.53,0.15,0.92,0.46,1.18c0.31,0.26,0.71,0.39,1.21,0.39c0.5,0,1-0.18,1.5-0.55
		c0.2-0.15,0.4-0.35,0.6-0.6c0.21-0.25,0.37-0.47,0.49-0.66c0.12-0.19,0.25-0.39,0.37-0.6c0.13-0.21,0.19-0.4,0.19-0.55
		c0-0.15-0.02-0.23-0.07-0.23c-0.02,0-0.05,0.03-0.08,0.08c-0.32,0.6-0.6,1.06-0.85,1.38c-0.25,0.32-0.55,0.61-0.9,0.87
		c-0.35,0.26-0.69,0.39-1.02,0.39c-0.56,0-0.84-0.33-0.84-1c0-0.31,0.07-0.66,0.23-1.07c0.16,0.09,0.4,0.13,0.73,0.13
		c0.57,0,1.06-0.13,1.48-0.4c0.42-0.27,0.63-0.62,0.63-1.07c0-0.26-0.11-0.48-0.32-0.67c-0.21-0.19-0.5-0.28-0.85-0.28
		c-0.79,0-1.48,0.34-2.07,1.03c-0.28,0.32-0.49,0.66-0.64,1.01c-0.13,0.32-0.21,0.65-0.24,0.99C63.35,36.83,63.34,36.91,63.34,36.99
		z M65.49,34.64c0.38-0.38,0.72-0.57,1.03-0.57c0.22,0,0.33,0.11,0.33,0.34c-0.03,0.34-0.21,0.66-0.54,0.95
		c-0.33,0.29-0.64,0.44-0.94,0.44c-0.3,0-0.45-0.08-0.45-0.24C64.92,35.33,65.11,35.02,65.49,34.64z"/>
	<path class="st1" d="M71,31.96c0.02,0,0.04-0.01,0.05-0.04c0.11-0.36,0.51-0.66,1.2-0.92c0.69-0.26,1.37-0.39,2.04-0.41
		c-0.28,0.31-0.89,1.59-1.84,3.86c-0.71,1.7-1.18,3.03-1.4,3.99h1.53c-0.03-0.06-0.05-0.14-0.05-0.26c0-0.58,0.33-1.7,0.98-3.36
		c0.17,0.02,0.35,0.04,0.54,0.04c1.11,0,2.09-0.21,2.94-0.64c0.44-0.21,0.81-0.52,1.09-0.91c0.28-0.39,0.45-0.85,0.5-1.37v-0.15
		c0-0.47-0.18-0.85-0.55-1.16c-0.37-0.31-0.91-0.46-1.63-0.46h-3c-0.4,0-0.74,0.03-1.01,0.08c-0.27,0.06-0.55,0.2-0.83,0.44
		c-0.28,0.24-0.5,0.57-0.65,1.01c-0.02,0.06-0.02,0.1-0.02,0.12C70.9,31.91,70.93,31.96,71,31.96z M77.38,31.97
		c0,0.56-0.18,1.05-0.54,1.45c-0.36,0.41-0.83,0.71-1.39,0.91c-0.56,0.2-1.13,0.3-1.7,0.3H73.6l0.25-0.58
		c0.74-1.71,1.37-2.89,1.89-3.54C76.83,30.59,77.38,31.07,77.38,31.97z"/>
	<path class="st1" d="M78.38,33.4c-0.1,0.13-0.15,0.27-0.15,0.43c0,0.32,0.14,0.55,0.43,0.69c-0.01,0.02-0.07,0.14-0.18,0.36
		c-0.11,0.21-0.22,0.44-0.32,0.67c-0.1,0.23-0.15,0.42-0.15,0.55s0.02,0.2,0.06,0.2c0.04,0,0.35-0.55,0.91-1.66
		c0.09,0.04,0.19,0.06,0.27,0.06c0.28,0,0.55-0.11,0.83-0.33c-0.34,0.53-0.6,1.08-0.77,1.65c-0.17,0.57-0.26,1.08-0.26,1.53
		c0,0.66,0.23,1,0.68,1c0.25,0,0.53-0.12,0.85-0.37c0.31-0.25,0.58-0.52,0.8-0.82c0.12-0.16,0.26-0.37,0.41-0.6
		c0.03-0.33,0.12-0.68,0.26-1.02c-0.1,0.17-0.22,0.36-0.35,0.59c-0.15,0.24-0.28,0.44-0.4,0.59c-0.12,0.15-0.28,0.3-0.46,0.44
		c-0.19,0.14-0.33,0.21-0.43,0.22c-0.16,0-0.24-0.11-0.24-0.34c0-0.23,0.07-0.53,0.2-0.9c0.13-0.37,0.25-0.66,0.36-0.88
		c0.11-0.22,0.27-0.54,0.49-0.97c0.22-0.43,0.38-0.68,0.5-0.77h-0.12l-0.6-0.01c-0.28,0-0.56,0.2-0.84,0.59
		c-0.03,0.01-0.08,0.01-0.14,0.01c-0.22,0-0.41-0.06-0.56-0.18c-0.15-0.12-0.23-0.29-0.23-0.5c0-0.09,0.01-0.17,0.02-0.21
		c-0.11-0.11-0.25-0.17-0.43-0.17C78.61,33.21,78.47,33.27,78.38,33.4z"/>
	<path class="st1" d="M81.76,37.07c0,0.49,0.12,0.86,0.37,1.1c0.25,0.24,0.57,0.36,0.97,0.36c0.62,0,1.12-0.16,1.51-0.49
		c0.39-0.32,0.73-0.77,1.01-1.33c0.19,0.15,0.42,0.23,0.68,0.23c0.26,0,0.55-0.12,0.85-0.37c0.3-0.25,0.46-0.56,0.46-0.94
		c0-0.12-0.02-0.18-0.07-0.18c-0.02,0-0.05,0.02-0.07,0.07c-0.36,0.69-0.75,1.03-1.16,1.03c-0.22,0-0.39-0.08-0.51-0.25
		c0.17-0.42,0.25-0.82,0.25-1.2c0-1-0.47-1.49-1.41-1.49c-0.56,0-1.07,0.19-1.52,0.57c-0.45,0.38-0.79,0.83-1.02,1.36
		c-0.02,0.05-0.04,0.11-0.06,0.16c-0.13,0.35-0.22,0.69-0.26,1.02C81.76,36.84,81.76,36.95,81.76,37.07z M83.32,35.75
		c0.52-1.06,1.05-1.59,1.6-1.59c0.35,0,0.54,0.21,0.57,0.63h-0.07c-0.2,0-0.35,0.06-0.47,0.19c-0.11,0.13-0.17,0.3-0.17,0.51
		c0,0.35,0.13,0.64,0.4,0.87c-0.2,0.43-0.44,0.83-0.73,1.19c-0.29,0.36-0.6,0.54-0.94,0.54c-0.41-0.02-0.62-0.27-0.62-0.75
		C82.89,36.86,83.04,36.33,83.32,35.75z"/>
	<path class="st1" d="M90.02,31.94c0.03,0,0.05-0.01,0.06-0.04c0.19-0.32,0.59-0.6,1.2-0.82c0.61-0.22,1.29-0.38,2.03-0.47
		c-0.32,0.38-0.85,1.44-1.57,3.19h-0.4c-0.09,0-0.22,0.07-0.37,0.2c-0.15,0.13-0.23,0.24-0.23,0.32c0,0.04,0.03,0.06,0.09,0.06h0.65
		c-0.7,1.69-1.05,2.86-1.05,3.5c0,0.37,0.12,0.56,0.37,0.56h3.58c0.32,0,0.57-0.01,0.78-0.04c0.2-0.03,0.42-0.09,0.65-0.18
		c0.43-0.18,0.76-0.62,0.98-1.3c0.02-0.08,0.02-0.14,0.02-0.19s-0.02-0.07-0.07-0.07c-0.04,0-0.07,0.01-0.09,0.04
		c-0.43,0.9-1.79,1.35-4.1,1.35c-0.3,0-0.51-0.05-0.64-0.15c-0.13-0.1-0.19-0.25-0.19-0.46c0-0.21,0.1-0.64,0.31-1.29
		c0.21-0.65,0.41-1.23,0.63-1.76h2.92c0.07,0,0.16-0.08,0.27-0.24c0.11-0.16,0.17-0.27,0.17-0.33l-0.01-0.01h-3.09
		c0.47-1.1,1-2.08,1.57-2.94c0.08-0.13,0.19-0.21,0.32-0.25c0.13-0.04,0.34-0.06,0.62-0.06c0.28,0,0.51,0.07,0.71,0.21
		c0.2,0.14,0.3,0.34,0.3,0.58l-0.09,0.71c0,0.06,0.04,0.09,0.12,0.09c0.08,0,0.22-0.21,0.41-0.63c0.19-0.42,0.29-0.77,0.29-1.05
		c0-0.05-0.01-0.12-0.04-0.22c-0.03-0.1-0.16-0.15-0.41-0.15l-1.29,0.06h-2.34c-0.61,0-1.09,0.04-1.46,0.12
		c-0.8,0.18-1.35,0.68-1.65,1.51c-0.01,0.02-0.01,0.05-0.01,0.09S89.99,31.94,90.02,31.94z"/>
	<path class="st1" d="M102.6,36.3c-0.14,0.24-0.25,0.4-0.33,0.5c-0.51,0.64-0.93,0.96-1.24,0.96c-0.12,0-0.23-0.05-0.34-0.15
		c-0.22-0.21-0.47-0.76-0.73-1.63c0.92-0.96,1.69-1.72,2.32-2.28c-0.02,0-0.07,0-0.15-0.01c-0.08,0-0.21-0.01-0.37-0.01
		c-0.17,0-0.28,0.04-0.36,0.12c-0.13,0.14-0.37,0.42-0.72,0.82c-0.35,0.41-0.63,0.71-0.82,0.91c-0.22-0.7-0.38-1.31-0.47-1.84h-0.62
		c-0.14,0-0.26,0.08-0.36,0.25c-0.09,0.17-0.2,0.43-0.33,0.79c-0.12,0.36-0.25,0.65-0.37,0.88c-0.03,0.06-0.05,0.17-0.05,0.33
		c0,0.16,0.02,0.24,0.06,0.24c0.07-0.07,0.32-0.53,0.75-1.38c0.13,0.54,0.28,1.07,0.47,1.59c-0.85,0.84-1.56,1.51-2.13,2.03h0.88
		c0.28-0.36,0.76-0.87,1.42-1.53c0.16,0.55,0.34,0.96,0.56,1.23c0.21,0.27,0.47,0.4,0.78,0.4c0.31,0,0.63-0.13,0.95-0.38
		c0.33-0.25,0.61-0.53,0.86-0.82c0.08-0.09,0.17-0.21,0.25-0.33c0.19-0.54,0.36-0.99,0.49-1.35C102.9,35.81,102.77,36.03,102.6,36.3
		z"/>
	<path class="st1" d="M102.42,40.15l0.66-2.08c0.09,0.39,0.52,0.58,1.28,0.58c0.76,0,1.41-0.24,1.97-0.72
		c0.36-0.31,0.69-0.7,1.02-1.17c0.02-0.32,0.09-0.64,0.22-0.94c-0.02,0.03-0.04,0.07-0.06,0.1c-0.24,0.42-0.43,0.71-0.57,0.88
		c-0.24,0.32-0.54,0.6-0.87,0.87c-0.34,0.26-0.67,0.39-0.99,0.39h-0.09c0.51-0.35,0.96-0.84,1.34-1.47
		c0.38-0.63,0.57-1.25,0.57-1.85c0-0.73-0.26-1.09-0.79-1.09c-0.56,0-1.21,0.49-1.94,1.47c0.39-0.79,0.71-1.27,0.94-1.42h-0.36
		c-0.47,0-0.79,0.09-0.98,0.28c-0.09,0.1-0.24,0.4-0.44,0.89c-0.07,0.18-0.17,0.44-0.3,0.79c-0.13,0.36-0.3,0.81-0.49,1.35
		c-0.13,0.37-0.28,0.79-0.44,1.25c-0.62,1.78-1.04,2.81-1.24,3.11h0.57c0.16,0,0.29-0.02,0.39-0.06c0.1-0.04,0.2-0.13,0.28-0.27
		C102.14,40.92,102.26,40.61,102.42,40.15z M103.88,36.14c0.36-0.59,0.71-1,1.03-1.26c0.2-0.16,0.38-0.24,0.54-0.24
		c0.05,0,0.08,0,0.11,0.01c0.12,0.03,0.18,0.15,0.18,0.34c0,0.46-0.24,1.1-0.72,1.91c-0.48,0.81-0.93,1.22-1.34,1.22
		c-0.23,0-0.34-0.19-0.34-0.56C103.33,37.2,103.51,36.72,103.88,36.14z"/>
	<path class="st1" d="M107.33,36.99c0,0.53,0.15,0.92,0.46,1.18c0.31,0.26,0.71,0.39,1.21,0.39c0.5,0,1-0.18,1.5-0.55
		c0.2-0.15,0.4-0.35,0.6-0.6c0.21-0.25,0.37-0.47,0.49-0.66c0.11-0.16,0.21-0.34,0.32-0.52c-0.02,0.03-0.04,0.05-0.05,0.05
		c-0.04,0-0.06-0.07-0.06-0.2s0.05-0.31,0.15-0.55c0-0.01,0.01-0.01,0.01-0.02c-0.3,0.56-0.57,1-0.8,1.3
		c-0.25,0.32-0.55,0.61-0.9,0.87c-0.35,0.26-0.69,0.39-1.02,0.39c-0.56,0-0.84-0.33-0.84-1c0-0.31,0.07-0.66,0.23-1.07
		c0.16,0.09,0.4,0.13,0.73,0.13c0.57,0,1.06-0.13,1.48-0.4c0.42-0.27,0.63-0.62,0.63-1.07c0-0.26-0.11-0.48-0.32-0.67
		c-0.21-0.19-0.5-0.28-0.85-0.28c-0.79,0-1.48,0.34-2.07,1.03c-0.29,0.34-0.51,0.69-0.66,1.06c-0.12,0.3-0.19,0.62-0.22,0.94
		C107.34,36.84,107.33,36.91,107.33,36.99z M109.48,34.64c0.38-0.38,0.72-0.57,1.03-0.57c0.22,0,0.33,0.11,0.33,0.34
		c-0.03,0.34-0.21,0.66-0.54,0.95c-0.33,0.29-0.64,0.44-0.94,0.44c-0.3,0-0.45-0.08-0.45-0.24
		C108.91,35.33,109.1,35.02,109.48,34.64z"/>
	<path class="st1" d="M111.81,36.09c0,0.13,0.02,0.2,0.06,0.2c0.01,0,0.03-0.02,0.05-0.05c0.11-0.16,0.39-0.69,0.86-1.61
		c0.09,0.04,0.19,0.06,0.27,0.06c0.28,0,0.55-0.11,0.83-0.33c-0.34,0.53-0.6,1.08-0.77,1.65c-0.17,0.57-0.26,1.08-0.26,1.53
		c0,0.66,0.23,1,0.68,1c0.25,0,0.53-0.12,0.85-0.37c0.31-0.25,0.58-0.52,0.8-0.82c0.17-0.24,0.39-0.56,0.63-0.95
		c-0.09,0.11-0.15,0.17-0.16,0.17c-0.03,0-0.05-0.05-0.05-0.15c0-0.1,0.05-0.26,0.16-0.48c0.06-0.12,0.13-0.26,0.21-0.41
		c-0.03,0.04-0.06,0.09-0.1,0.16c-0.11,0.18-0.23,0.39-0.38,0.63c-0.15,0.24-0.28,0.44-0.4,0.59c-0.12,0.15-0.28,0.3-0.46,0.44
		c-0.19,0.14-0.33,0.21-0.43,0.22c-0.16,0-0.24-0.11-0.24-0.34c0-0.23,0.07-0.53,0.2-0.9c0.13-0.37,0.25-0.66,0.36-0.88
		c0.11-0.22,0.27-0.54,0.49-0.97c0.22-0.43,0.38-0.68,0.5-0.77h-0.12l-0.6-0.01c-0.28,0-0.56,0.2-0.84,0.59
		c-0.03,0.01-0.08,0.01-0.14,0.01c-0.22,0-0.41-0.06-0.56-0.18c-0.15-0.12-0.23-0.29-0.23-0.5c0-0.09,0.01-0.17,0.02-0.21
		c-0.11-0.11-0.25-0.17-0.43-0.17c-0.17,0-0.31,0.06-0.41,0.19c-0.1,0.13-0.15,0.27-0.15,0.43c0,0.32,0.14,0.55,0.43,0.69
		c-0.01,0.02-0.07,0.14-0.18,0.36c-0.11,0.21-0.21,0.42-0.31,0.65c0,0.01-0.01,0.01-0.01,0.02
		C111.86,35.77,111.81,35.95,111.81,36.09z"/>
	<path class="st1" d="M115.6,36.39c0,0.1,0.02,0.15,0.05,0.15c0.01,0,0.07-0.06,0.16-0.17c0.01-0.01,0.02-0.02,0.02-0.03
		c0.11-0.13,0.23-0.34,0.38-0.62v0.01c-0.25,0.69-0.38,1.3-0.38,1.83c0,0.63,0.23,0.95,0.68,0.95c0.24,0,0.52-0.12,0.82-0.37
		c0.3-0.24,0.56-0.51,0.77-0.79c0.65-0.87,0.97-1.46,0.98-1.76c0-0.13-0.02-0.19-0.07-0.19c-0.02,0-0.21,0.29-0.57,0.88
		c-0.14,0.25-0.26,0.42-0.34,0.52c-0.37,0.47-0.69,0.71-0.97,0.71c-0.19,0-0.28-0.15-0.28-0.45c0-0.44,0.31-1.44,0.94-2.99h1.02
		c0.06,0,0.14-0.05,0.22-0.15c0.09-0.1,0.13-0.17,0.13-0.21l-0.01-0.01h-1.2c0.48-1.11,0.92-1.8,1.3-2.06
		c-0.04,0.01-0.23,0.01-0.57,0.01c-0.58,0-1.16,0.68-1.73,2.05h-0.9c-0.03,0-0.08,0.04-0.14,0.13c-0.06,0.09-0.09,0.15-0.09,0.18
		c0,0.04,0.01,0.05,0.04,0.05h0.79c-0.12,0.29-0.27,0.62-0.46,0.97c-0.09,0.17-0.16,0.32-0.23,0.45c-0.08,0.16-0.15,0.3-0.21,0.41
		C115.65,36.13,115.6,36.29,115.6,36.39z"/>
	<path class="st1" d="M118.56,37.15c-0.11,0.16-0.17,0.33-0.17,0.52c0,0.33,0.15,0.58,0.45,0.75c0.3,0.17,0.67,0.25,1.11,0.25
		c0.77,0,1.39-0.19,1.87-0.58c0.48-0.39,1.02-1.08,1.61-2.06c0.08-0.13,0.12-0.27,0.12-0.42c0-0.15-0.02-0.22-0.07-0.22
		c-0.03,0-0.19,0.25-0.46,0.75c-0.12,0.2-0.2,0.33-0.25,0.39c-0.5,0.76-0.97,1.23-1.41,1.42c0.16-0.12,0.29-0.28,0.41-0.47
		c0.11-0.2,0.17-0.42,0.17-0.67c0-0.25-0.09-0.49-0.26-0.71c-0.17-0.23-0.36-0.4-0.57-0.53c-0.21-0.13-0.4-0.28-0.57-0.46
		c-0.17-0.18-0.26-0.38-0.26-0.58c0-0.21,0.08-0.37,0.25-0.5c0.17-0.13,0.35-0.19,0.53-0.19c0.18,0,0.32,0.03,0.42,0.09
		c0.1,0.06,0.15,0.15,0.15,0.27c0,0.12-0.09,0.23-0.27,0.34c-0.18,0.11-0.27,0.19-0.27,0.25c0,0.24,0.13,0.36,0.38,0.36
		c0.26,0,0.46-0.09,0.61-0.27c0.15-0.18,0.23-0.4,0.23-0.65c0-0.25-0.11-0.43-0.34-0.55c-0.23-0.12-0.51-0.18-0.84-0.18
		c-0.53,0-0.95,0.14-1.25,0.41c-0.3,0.27-0.46,0.61-0.46,1.01c0,0.4,0.16,0.75,0.49,1.06c0.13,0.13,0.27,0.25,0.4,0.38
		c0.13,0.13,0.25,0.27,0.34,0.44c0.09,0.17,0.14,0.36,0.14,0.58c0,0.22-0.1,0.42-0.29,0.6c-0.19,0.18-0.42,0.27-0.68,0.27
		c-0.44,0-0.66-0.2-0.66-0.59c0-0.2,0.07-0.37,0.23-0.52c-0.06-0.14-0.18-0.21-0.37-0.21C118.82,36.91,118.67,36.99,118.56,37.15z"
		/>
	<path class="st0" d="M102.52,40.32l-0.02,0.05c-0.14,0.39-0.24,0.64-0.31,0.76c-0.08,0.13-0.16,0.22-0.26,0.28h23.42v-1.09H102.52z
		"/>
	<path class="st0" d="M40.06,40.32v1.09h60.56l0.08-0.11c0.07-0.1,0.2-0.35,0.45-0.98H40.06z"/>
</g>
</svg>
