<?xml version="1.0" encoding="utf-8"?>
<!-- Generator: Adobe Illustrator 24.0.2, SVG Export Plug-In . SVG Version: 6.00 Build 0)  -->
<svg version="1.1" id="Layer_1" xmlns="http://www.w3.org/2000/svg" xmlns:xlink="http://www.w3.org/1999/xlink" x="0px" y="0px"
	 viewBox="0 0 420.49 165.11" style="enable-background:new 0 0 420.49 165.11;" xml:space="preserve">
<style type="text/css">
	.st0{fill:#C84E2F;}
	.st1{fill:#00618A;}
	.st2{fill:#00628C;}
</style>
<g>
	<path class="st0" d="M71.52,119.95c11,37.17,35.83,34.5,35.83,34.5c-10.67-7-17.33-35.17-30-74.67
		C68.84,53.22,56.1,46.93,48.67,45.67c-1.27,0.68-2.55,1.33-3.83,1.94C55.98,59.14,61.17,84.96,71.52,119.95z"/>
	<path class="st1" d="M107.8,90.4c-0.15-0.48-0.31-0.95-0.47-1.42c-1.67,0.33-3.35,0.59-5.04,0.75c-2.68,0.23-5.42,0.42-8.06-0.13
		c1.32-0.15,2.59-0.48,3.85-0.85c1.26-0.35,2.5-0.75,3.73-1.19c1.49-0.54,2.95-1.12,4.4-1.73c-12.83-34.5-33.08-29.6-33.08-29.6
		c12.67,10.33,17.83,37.17,28.83,74.33c11,37.17,35.83,34.5,35.83,34.5C127.13,158.06,120.47,129.9,107.8,90.4z"/>
	<path class="st0" d="M142.76,15.15c3.54,3.88,6.63,8,9.05,12.35c2.42,4.35,4.2,8.89,5.23,13.58c0.5,2.34,0.88,4.71,1.02,7.11
		c0.16,2.38,0.18,4.86-0.01,7.16c-0.37,4.69-1.48,9.22-3.47,13.47c-1.95,4.26-4.77,8.22-8.16,11.86c-3.4,3.64-7.39,6.92-11.73,9.89
		c-2.17,1.49-4.44,2.88-6.79,4.2c-1.18,0.65-2.37,1.28-3.6,1.87c-1.22,0.61-2.46,1.16-3.8,1.55c2.8,0.49,5.69,0.17,8.48-0.25
		c2.81-0.45,5.58-1.16,8.3-2.07c5.44-1.84,10.67-4.53,15.42-8.15c4.74-3.6,8.93-8.23,11.99-13.66c3.05-5.43,4.9-11.61,5.33-17.79
		c0.23-3.13,0.16-6.12-0.17-9.16c-0.36-3.03-0.93-6.05-1.84-8.96c-1.78-5.85-4.7-11.31-8.44-15.95c-3.73-4.65-8.21-8.53-13.08-11.57
		c-2.44-1.51-4.97-2.84-7.59-3.93c-2.61-1.1-5.31-1.98-8.07-2.5C135.24,7.62,139.21,11.27,142.76,15.15z"/>
	<path class="st2" d="M98.08,88.75c-1.26,0.37-2.53,0.7-3.85,0.85c2.65,0.55,5.38,0.36,8.06,0.13c1.69-0.16,3.37-0.42,5.04-0.75
		c0.99-0.19,1.98-0.41,2.97-0.65c5.28-1.32,10.44-3.37,15.24-6.25c4.79-2.87,9.2-6.67,12.65-11.35c1.72-2.34,3.17-4.9,4.34-7.58
		c1.13-2.7,1.96-5.52,2.48-8.38c0.49-2.88,0.7-5.73,0.65-8.6c-0.08-2.87-0.38-5.75-1.02-8.55c-1.23-5.62-3.63-10.92-6.81-15.54
		c-3.19-4.62-7.11-8.61-11.44-11.91c-2.17-1.65-4.43-3.15-6.8-4.45c-2.36-1.3-4.79-2.47-7.33-3.31c0.01,0.01,0.01,0.01,0.02,0.02
		c2.72,1.38,5.27,3.39,7.64,6.14c0,0-0.2-0.04-0.59-0.07c1.54,1.47,3.03,2.98,4.43,4.55c3.43,3.82,6.42,7.93,8.74,12.3
		c2.32,4.37,3.95,8.99,4.73,13.72c0.38,2.37,0.59,4.76,0.56,7.16c-0.02,2.4-0.2,4.82-0.64,7.13c-0.41,2.33-1.04,4.6-1.92,6.77
		c-0.85,2.19-1.96,4.27-3.25,6.25c-2.59,3.97-6.04,7.46-9.96,10.49c-3.93,3.03-8.35,5.58-13.01,7.75c-0.91,0.43-1.85,0.82-2.78,1.21
		c-1.45,0.61-2.91,1.19-4.4,1.73C100.59,88,99.34,88.4,98.08,88.75z"/>
	<path class="st0" d="M112.29,2.43C93.93-6.91,68.08,12.6,42.69,28.86C13.54,47.53,0,47.7,0,47.7c13.95,10.1,29.65,7.23,44.84-0.09
		c1.28-0.62,2.56-1.27,3.83-1.94c13.02-6.92,25.51-16.62,36-23.64c20.59-13.77,32.04-13.77,34.67-13.54
		c0.39,0.03,0.59,0.07,0.59,0.07C117.56,5.82,115.01,3.81,112.29,2.43z"/>
	<path class="st1" d="M138.96,116.93c3.73,0,7.02-0.72,9.85-2.15c1.48-0.72,2.7-1.73,3.65-3.04c0.95-1.31,1.51-2.84,1.67-4.6v-0.52
		c0-1.57-0.62-2.87-1.85-3.9c-1.23-1.04-3.05-1.55-5.46-1.55h-10.05c-1.35,0-2.48,0.09-3.4,0.28c-0.91,0.19-1.85,0.68-2.8,1.47
		c-0.95,0.8-1.68,1.92-2.18,3.38c-0.05,0.21-0.08,0.34-0.08,0.4c0,0.35,0.12,0.52,0.36,0.52c0.08,0,0.13-0.04,0.16-0.12
		c0.37-1.19,1.71-2.22,4.03-3.08c2.32-0.86,4.6-1.32,6.85-1.37c-0.93,1.04-2.98,5.35-6.16,12.93c-2.38,5.7-3.95,10.16-4.69,13.37
		H134c-0.11-0.19-0.16-0.48-0.16-0.88c0-1.94,1.1-5.69,3.3-11.26C137.69,116.89,138.3,116.93,138.96,116.93z M138.21,114.22
		c2.49-5.73,4.61-9.68,6.36-11.86c3.65,0.24,5.48,1.87,5.48,4.89c0,1.88-0.61,3.51-1.83,4.87c-1.22,1.37-2.77,2.38-4.67,3.05
		c-1.89,0.66-3.79,0.99-5.7,0.99h-0.48L138.21,114.22z"/>
	<path class="st1" d="M158.33,108.45c0.49-0.45,1-0.68,1.53-0.68h0.16c0.5-0.32,0.75-0.68,0.75-1.09c0-0.41-0.15-0.75-0.44-1.01
		c-0.29-0.26-0.73-0.4-1.31-0.4c-0.58,0-1.19,0.35-1.83,1.05c-0.64,0.7-0.95,1.4-0.95,2.09c0,0.69,0.34,1.17,1.03,1.43
		C157.48,109.37,157.84,108.91,158.33,108.45z"/>
	<path class="st1" d="M156.97,121.75c-0.49,0.8-0.93,1.45-1.33,1.97c-0.4,0.52-0.91,1.01-1.53,1.47c-0.62,0.46-1.11,0.7-1.45,0.7
		c-0.5,0-0.75-0.38-0.75-1.15c0-0.77,0.22-1.76,0.66-2.98c0.44-1.22,0.83-2.19,1.17-2.91c0.34-0.72,0.87-1.78,1.57-3.18
		c0.7-1.41,1.26-2.27,1.69-2.59h-0.4l-1.99-0.04c-1.14,0-2.17,0.8-3.1,2.39c-2.2,3.9-3.3,7.46-3.3,10.66c0,2.07,0.74,3.1,2.22,3.1
		c0.85,0,1.79-0.41,2.82-1.23c1.03-0.82,1.95-1.78,2.76-2.88c0.38-0.52,0.79-1.11,1.21-1.76c0.09-1.13,0.36-2.22,0.79-3.28
		C157.72,120.54,157.37,121.1,156.97,121.75z"/>
	<path class="st1" d="M167.92,117.09c-0.66,0.29-0.99,0.6-0.99,0.92c0,0.98,0.6,1.47,1.79,1.47c0.61,0,1.15-0.32,1.63-0.96
		c0.48-0.64,0.71-1.39,0.71-2.25c0-0.86-0.36-1.6-1.07-2.23c-0.71-0.62-1.67-0.93-2.86-0.93c-2.67,0-5,1.16-6.97,3.48
		c-0.93,1.09-1.63,2.24-2.12,3.44c-0.43,1.05-0.7,2.14-0.79,3.28c-0.03,0.31-0.04,0.63-0.04,0.95c0,1.51,0.42,2.74,1.25,3.68
		c0.84,0.94,2.19,1.41,4.05,1.41c1.87,0,3.38-0.42,4.55-1.27c0.69-0.5,1.26-0.94,1.71-1.31c0.45-0.37,0.98-0.98,1.59-1.83
		c0.61-0.85,1.04-1.47,1.29-1.85c0.2-0.31,0.46-0.73,0.78-1.26c-0.02,0.03-0.04,0.06-0.06,0.09c-0.36,0.45-0.56,0.68-0.62,0.68
		c-0.11,0-0.16-0.16-0.16-0.5c0-0.33,0.18-0.87,0.54-1.61c0.17-0.34,0.36-0.74,0.59-1.18c-0.06,0.09-0.12,0.19-0.19,0.31
		c-0.33,0.56-0.75,1.23-1.25,2.03c-2.49,4.06-5.04,6.09-7.67,6.09c-1.88,0-2.82-1.08-2.82-3.24c0-2.16,0.78-4.4,2.34-6.71
		c1.56-2.31,3.14-3.46,4.73-3.46c0.74,0,1.11,0.34,1.11,1.04c0,0.48-0.11,0.86-0.32,1.15C168.42,116.78,168.18,116.98,167.92,117.09
		z"/>
	<path class="st1" d="M171.57,122.08c0,0.33,0.05,0.5,0.16,0.5c0.05,0,0.26-0.22,0.62-0.68c0.02-0.03,0.04-0.06,0.06-0.09
		c0.35-0.45,0.75-1.11,1.23-1.98v0.04c-0.85,2.31-1.27,4.35-1.27,6.13c0,2.12,0.75,3.18,2.26,3.18c0.82,0,1.73-0.41,2.74-1.23
		c1.01-0.82,1.87-1.71,2.58-2.67c0.57-0.76,1.06-1.46,1.48-2.09c0.19-0.79,0.43-1.68,0.74-2.7c0.11-0.37,0.24-0.71,0.36-1.06
		c-0.32,0.49-0.79,1.24-1.43,2.27c-0.48,0.82-0.86,1.41-1.15,1.75c-1.25,1.59-2.33,2.39-3.26,2.39c-0.64,0-0.95-0.5-0.95-1.51
		c0-1.49,1.05-4.83,3.14-10.03h3.42c0.21,0,0.46-0.17,0.75-0.5c0.29-0.33,0.44-0.56,0.44-0.7l-0.04-0.04h-4.01
		c1.61-3.71,3.07-6.02,4.37-6.92c-0.13,0.03-0.77,0.04-1.91,0.04c-1.96,0-3.89,2.29-5.8,6.88h-3.02c-0.11,0-0.26,0.15-0.46,0.44
		c-0.2,0.29-0.3,0.5-0.3,0.62c0,0.12,0.04,0.18,0.12,0.18h2.66c-0.4,0.98-0.91,2.07-1.53,3.26c-0.33,0.64-0.63,1.21-0.88,1.72
		c-0.22,0.44-0.42,0.84-0.59,1.18C171.75,121.21,171.57,121.75,171.57,122.08z"/>
	<path class="st1" d="M181.43,123.19c-0.27,1.14-0.41,2.05-0.41,2.69c0,1.09,0.2,1.91,0.62,2.47c0.41,0.56,0.95,0.83,1.61,0.83
		c2.25,0,4.62-1.76,7.11-5.29c-0.11,0.64-0.16,1.3-0.16,1.99c0,2.2,0.74,3.3,2.22,3.3c2.1,0,4.71-2.52,7.81-7.55
		c-0.03,0.04-0.07,0.07-0.08,0.07c-0.15,0-0.22-0.22-0.22-0.66c0-0.38,0.14-0.91,0.39-1.56c-0.03,0.05-0.06,0.09-0.09,0.15
		c-0.36,0.58-0.78,1.27-1.27,2.07c-0.49,0.8-0.95,1.47-1.37,2.01c-0.42,0.54-0.93,1.04-1.53,1.49s-1.07,0.68-1.41,0.68
		c-0.53,0-0.79-0.4-0.79-1.19c0-1.33,0.7-3.5,2.08-6.51c1.39-3.01,2.46-4.77,3.2-5.27c-0.11,0.03-0.36,0.04-0.75,0.04l-1.91-0.04
		c-0.9,0-1.84,0.77-2.82,2.31c-0.19,0.29-0.85,1.56-2.01,3.8c-1.15,2.24-2.23,4.07-3.24,5.47c-1.01,1.41-1.87,2.11-2.6,2.11
		c-0.73,0-1.09-0.5-1.09-1.51c0-1.7,0.87-4.36,2.62-8c0.77-1.54,1.48-2.76,2.14-3.66h-1.91c-0.85,0-1.42,0.05-1.73,0.14
		c-0.3,0.09-0.59,0.34-0.85,0.74c-0.95,1.38-1.76,3.1-2.46,5.13c-0.12,0.35-0.24,0.69-0.36,1.06
		C181.87,121.51,181.62,122.41,181.43,123.19z"/>
	<path class="st1" d="M200.15,121.71c0.02,0,0.05-0.03,0.08-0.07c0.29-0.35,1.28-2.17,2.96-5.5c0.32,0.13,0.62,0.2,0.91,0.2
		c0.93,0,1.85-0.37,2.78-1.11c-1.14,1.78-2,3.62-2.58,5.53c-0.58,1.91-0.87,3.62-0.87,5.13c0,2.23,0.75,3.34,2.26,3.34
		c0.85,0,1.79-0.42,2.84-1.25c1.05-0.84,1.94-1.76,2.68-2.77c0.38-0.52,0.82-1.16,1.31-1.91c0.08-1.15,0.35-2.26,0.81-3.33
		c-0.31,0.52-0.66,1.1-1.06,1.76c-0.49,0.81-0.94,1.47-1.35,1.99c-0.41,0.52-0.93,1.01-1.55,1.47c-0.62,0.46-1.11,0.71-1.45,0.74
		c-0.53,0-0.79-0.38-0.79-1.15c0-0.77,0.22-1.77,0.66-3c0.44-1.23,0.83-2.21,1.19-2.94c0.36-0.73,0.9-1.81,1.63-3.24
		c0.73-1.43,1.29-2.29,1.69-2.59h-0.4l-2.03-0.04c-0.95,0-1.89,0.66-2.82,1.99c-0.11,0.03-0.27,0.04-0.48,0.04
		c-0.74,0-1.37-0.2-1.89-0.62c-0.52-0.41-0.77-0.97-0.77-1.69c0-0.32,0.03-0.56,0.08-0.72c-0.37-0.37-0.85-0.56-1.43-0.56
		c-0.58,0-1.04,0.21-1.37,0.64c-0.33,0.42-0.5,0.9-0.5,1.43c0,1.06,0.48,1.83,1.43,2.31c-0.03,0.08-0.23,0.48-0.62,1.19
		c-0.38,0.72-0.74,1.47-1.07,2.25c-0.04,0.1-0.07,0.18-0.11,0.27c-0.26,0.65-0.39,1.18-0.39,1.56
		C199.93,121.49,200.01,121.71,200.15,121.71z"/>
	<path class="st1" d="M212.49,124.09c0,1.78,0.52,3.1,1.55,3.96c1.03,0.86,2.39,1.29,4.07,1.29c1.68,0,3.36-0.61,5.02-1.83
		c0.66-0.5,1.34-1.18,2.03-2.03c0.69-0.85,1.24-1.59,1.65-2.23c0.41-0.64,0.83-1.31,1.25-2.03c0.42-0.72,0.64-1.33,0.64-1.85
		c0-0.52-0.08-0.78-0.24-0.78c-0.08,0-0.17,0.09-0.28,0.28c-1.06,2.02-2.01,3.56-2.84,4.64s-1.84,2.04-3.02,2.91
		c-1.18,0.86-2.32,1.29-3.44,1.29c-1.88,0-2.82-1.11-2.82-3.34c0-1.03,0.25-2.23,0.75-3.58c0.53,0.29,1.35,0.44,2.46,0.44
		c1.91,0,3.56-0.45,4.96-1.35c1.4-0.9,2.11-2.1,2.11-3.58c0-0.88-0.36-1.62-1.07-2.25c-0.71-0.62-1.67-0.93-2.86-0.93
		c-2.65,0-4.96,1.15-6.95,3.46c-0.94,1.09-1.64,2.22-2.14,3.39c-0.45,1.07-0.72,2.18-0.81,3.33
		C212.5,123.56,212.49,123.82,212.49,124.09z M219.68,116.21c1.27-1.27,2.42-1.91,3.46-1.91c0.74,0,1.11,0.38,1.11,1.15
		c-0.11,1.14-0.71,2.2-1.81,3.18c-1.1,0.98-2.15,1.47-3.16,1.47c-1.01,0-1.51-0.26-1.51-0.8
		C217.77,118.52,218.41,117.49,219.68,116.21z"/>
	<path class="st1" d="M238.19,107.22c0.08,0,0.13-0.04,0.16-0.12c0.37-1.19,1.71-2.22,4.03-3.08c2.32-0.86,4.6-1.32,6.85-1.37
		c-0.93,1.04-2.98,5.35-6.16,12.93c-2.38,5.7-3.95,10.16-4.69,13.37h5.12c-0.11-0.19-0.16-0.48-0.16-0.88c0-1.94,1.1-5.69,3.3-11.26
		c0.56,0.08,1.16,0.12,1.83,0.12c3.73,0,7.02-0.72,9.85-2.15c1.48-0.72,2.7-1.73,3.65-3.04c0.95-1.31,1.51-2.84,1.67-4.6v-0.52
		c0-1.57-0.62-2.87-1.85-3.9c-1.23-1.04-3.05-1.55-5.46-1.55h-10.05c-1.35,0-2.48,0.09-3.4,0.28c-0.91,0.19-1.85,0.68-2.8,1.47
		c-0.95,0.8-1.68,1.92-2.18,3.38c-0.05,0.21-0.08,0.34-0.08,0.4C237.83,107.05,237.95,107.22,238.19,107.22z M259.56,107.26
		c0,1.88-0.61,3.51-1.83,4.87c-1.22,1.37-2.77,2.38-4.67,3.05c-1.89,0.66-3.79,0.99-5.7,0.99h-0.48l0.83-1.95
		c2.49-5.73,4.61-9.68,6.36-11.86C257.73,102.6,259.56,104.24,259.56,107.26z"/>
	<path class="st1" d="M262.91,112.04c-0.33,0.42-0.5,0.9-0.5,1.43c0,1.06,0.48,1.83,1.43,2.31c-0.03,0.08-0.23,0.48-0.62,1.19
		c-0.38,0.72-0.74,1.47-1.07,2.25c-0.33,0.78-0.5,1.39-0.5,1.83s0.07,0.66,0.22,0.66c0.15,0,1.16-1.86,3.04-5.57
		c0.32,0.13,0.62,0.2,0.91,0.2c0.93,0,1.85-0.37,2.78-1.11c-1.14,1.78-2,3.62-2.58,5.53c-0.58,1.91-0.87,3.62-0.87,5.13
		c0,2.23,0.75,3.34,2.26,3.34c0.85,0,1.79-0.42,2.84-1.25c1.05-0.84,1.94-1.76,2.68-2.77c0.4-0.54,0.86-1.23,1.38-2.02
		c0.12-1.12,0.41-2.27,0.86-3.43c-0.34,0.57-0.73,1.22-1.19,1.97c-0.49,0.81-0.94,1.47-1.35,1.99c-0.41,0.52-0.93,1.01-1.55,1.47
		c-0.62,0.46-1.11,0.71-1.45,0.74c-0.53,0-0.79-0.38-0.79-1.15c0-0.77,0.22-1.77,0.66-3c0.44-1.23,0.83-2.21,1.19-2.94
		c0.36-0.73,0.9-1.81,1.63-3.24c0.73-1.43,1.29-2.29,1.69-2.59h-0.4l-2.03-0.04c-0.95,0-1.89,0.66-2.82,1.99
		c-0.11,0.03-0.27,0.04-0.48,0.04c-0.74,0-1.37-0.2-1.89-0.62c-0.52-0.41-0.77-0.97-0.77-1.69c0-0.32,0.03-0.56,0.08-0.72
		c-0.37-0.37-0.85-0.56-1.43-0.56C263.7,111.4,263.24,111.61,262.91,112.04z"/>
	<path class="st1" d="M274.25,124.35c0,1.66,0.42,2.89,1.25,3.7c0.83,0.81,1.91,1.21,3.24,1.21c2.07,0,3.75-0.54,5.06-1.63
		c1.31-1.09,2.44-2.57,3.4-4.46c0.64,0.5,1.4,0.76,2.28,0.76c0.89,0,1.84-0.42,2.86-1.25c1.02-0.84,1.53-1.89,1.53-3.16
		c0-0.4-0.08-0.6-0.24-0.6c-0.08,0-0.16,0.08-0.24,0.24c-1.22,2.31-2.52,3.46-3.89,3.46c-0.74,0-1.31-0.28-1.71-0.83
		c0.56-1.41,0.84-2.75,0.84-4.02c0-3.34-1.58-5.01-4.73-5.01c-1.88,0-3.58,0.64-5.1,1.91c-1.52,1.27-2.66,2.79-3.42,4.56
		c-0.08,0.18-0.13,0.36-0.2,0.53c-0.45,1.17-0.75,2.31-0.86,3.43C274.28,123.58,274.25,123.97,274.25,124.35z M279.5,119.91
		c1.75-3.55,3.54-5.33,5.36-5.33c1.17,0,1.8,0.7,1.91,2.11h-0.24c-0.66,0-1.19,0.21-1.57,0.64c-0.38,0.42-0.58,1-0.58,1.71
		c0,1.17,0.45,2.14,1.35,2.91c-0.66,1.46-1.48,2.79-2.44,4c-0.97,1.21-2.02,1.81-3.16,1.81c-1.38-0.08-2.07-0.92-2.07-2.51
		C278.07,123.66,278.54,121.88,279.5,119.91z"/>
	<path class="st1" d="M301.98,107.14c0.11,0,0.17-0.04,0.2-0.12c0.63-1.09,1.98-2,4.03-2.75c2.05-0.74,4.32-1.27,6.81-1.59
		c-1.09,1.27-2.85,4.84-5.28,10.7h-1.35c-0.32,0-0.73,0.23-1.23,0.68c-0.5,0.45-0.75,0.81-0.75,1.07c0,0.13,0.11,0.2,0.32,0.2h2.18
		c-2.36,5.68-3.54,9.59-3.54,11.74c0,1.25,0.41,1.87,1.23,1.87h12c1.06,0,1.93-0.05,2.6-0.14c0.68-0.09,1.4-0.3,2.17-0.62
		c1.46-0.61,2.56-2.07,3.3-4.38c0.05-0.27,0.08-0.48,0.08-0.64s-0.07-0.24-0.22-0.24c-0.15,0-0.25,0.04-0.3,0.12
		c-1.43,3.02-6.01,4.54-13.74,4.54c-1.01,0-1.72-0.17-2.15-0.5c-0.42-0.33-0.63-0.85-0.63-1.55c0-0.7,0.34-2.14,1.03-4.32
		c0.69-2.17,1.39-4.14,2.11-5.89h9.81c0.24,0,0.54-0.27,0.91-0.82c0.37-0.54,0.56-0.91,0.56-1.09l-0.04-0.04h-10.37
		c1.59-3.69,3.35-6.98,5.28-9.87c0.26-0.42,0.62-0.7,1.07-0.84c0.45-0.13,1.14-0.2,2.07-0.2c0.93,0,1.72,0.24,2.38,0.72
		c0.66,0.48,0.99,1.13,0.99,1.95l-0.32,2.39c0,0.21,0.14,0.32,0.42,0.32c0.28,0,0.74-0.71,1.39-2.13c0.65-1.42,0.97-2.59,0.97-3.52
		c0-0.16-0.05-0.4-0.14-0.74c-0.09-0.33-0.55-0.5-1.37-0.5l-4.33,0.2h-7.87c-2.04,0-3.67,0.13-4.89,0.4
		c-2.67,0.61-4.52,2.29-5.52,5.05c-0.03,0.05-0.04,0.15-0.04,0.3S301.87,107.14,301.98,107.14z"/>
	<path class="st1" d="M344.17,121.79c-0.48,0.79-0.85,1.35-1.11,1.67c-1.72,2.15-3.11,3.22-4.17,3.22c-0.4,0-0.78-0.17-1.15-0.52
		c-0.74-0.72-1.56-2.53-2.46-5.45c3.07-3.21,5.67-5.76,7.79-7.64c-0.05,0-0.22-0.01-0.5-0.02c-0.28-0.01-0.7-0.02-1.25-0.02
		c-0.56,0-0.95,0.13-1.19,0.4c-0.42,0.48-1.23,1.4-2.4,2.77c-1.18,1.37-2.1,2.38-2.76,3.04c-0.74-2.33-1.27-4.39-1.59-6.17h-2.07
		c-0.48,0-0.87,0.28-1.19,0.84c-0.32,0.56-0.68,1.44-1.09,2.65c-0.41,1.21-0.83,2.2-1.25,2.96c-0.11,0.21-0.16,0.58-0.16,1.11
		c0,0.53,0.07,0.8,0.2,0.8c0.24-0.24,1.07-1.78,2.5-4.62c0.42,1.8,0.95,3.58,1.59,5.33c-2.86,2.81-5.24,5.08-7.15,6.8h2.94
		c0.95-1.19,2.54-2.91,4.77-5.13c0.53,1.86,1.15,3.24,1.87,4.14c0.71,0.9,1.59,1.35,2.62,1.35c1.03,0,2.1-0.42,3.2-1.27
		c1.1-0.85,2.06-1.76,2.88-2.75c0.27-0.32,0.55-0.7,0.85-1.12c0.65-1.82,1.2-3.33,1.65-4.54
		C345.19,120.14,344.74,120.85,344.17,121.79z"/>
	<path class="st1" d="M343.57,134.68l2.22-6.96c0.32,1.3,1.75,1.95,4.29,1.95c2.54,0,4.74-0.81,6.59-2.43
		c1.19-1.04,2.33-2.35,3.41-3.93c0.08-1.09,0.32-2.14,0.73-3.16c-0.07,0.11-0.13,0.23-0.21,0.35c-0.82,1.39-1.46,2.38-1.91,2.96
		c-0.82,1.06-1.79,2.03-2.92,2.9c-1.13,0.88-2.23,1.31-3.32,1.31h-0.32c1.72-1.17,3.22-2.81,4.49-4.93
		c1.27-2.12,1.91-4.19,1.91-6.21c0-2.44-0.89-3.66-2.66-3.66c-1.88,0-4.05,1.65-6.51,4.93c1.32-2.65,2.37-4.24,3.14-4.78h-1.19
		c-1.56,0-2.66,0.32-3.3,0.96c-0.32,0.34-0.81,1.34-1.49,2.98c-0.24,0.6-0.59,1.49-1.02,2.65c-0.45,1.21-1,2.72-1.65,4.54
		c-0.45,1.26-0.94,2.65-1.49,4.2c-2.09,5.96-3.48,9.44-4.17,10.45h1.91c0.53,0,0.97-0.07,1.31-0.2c0.34-0.13,0.66-0.43,0.93-0.9
		C342.64,137.26,343.04,136.24,343.57,134.68z M348.46,121.23c1.22-1.96,2.37-3.37,3.46-4.22c0.66-0.53,1.27-0.8,1.83-0.8
		c0.16,0,0.28,0.01,0.36,0.04c0.4,0.11,0.6,0.49,0.6,1.15c0,1.54-0.81,3.67-2.42,6.41c-1.62,2.73-3.11,4.1-4.49,4.1
		c-0.77,0-1.15-0.62-1.15-1.87C346.63,124.8,347.24,123.19,348.46,121.23z"/>
	<path class="st1" d="M360.05,124.09c0,1.78,0.52,3.1,1.55,3.96c1.03,0.86,2.39,1.29,4.07,1.29c1.68,0,3.36-0.61,5.02-1.83
		c0.66-0.5,1.34-1.18,2.03-2.03c0.69-0.85,1.24-1.59,1.65-2.23c0.35-0.55,0.71-1.13,1.07-1.74c-0.08,0.11-0.14,0.18-0.16,0.18
		c-0.15,0-0.22-0.22-0.22-0.66s0.16-1.05,0.5-1.83c0.01-0.03,0.02-0.05,0.03-0.07c-1,1.88-1.9,3.35-2.7,4.37
		c-0.83,1.07-1.84,2.04-3.02,2.91c-1.18,0.86-2.32,1.29-3.44,1.29c-1.88,0-2.82-1.11-2.82-3.34c0-1.03,0.25-2.23,0.75-3.58
		c0.53,0.29,1.35,0.44,2.46,0.44c1.91,0,3.56-0.45,4.96-1.35c1.4-0.9,2.11-2.1,2.11-3.58c0-0.88-0.36-1.62-1.07-2.25
		c-0.71-0.62-1.67-0.93-2.86-0.93c-2.65,0-4.96,1.15-6.95,3.46c-0.98,1.14-1.72,2.33-2.22,3.57c-0.41,1.02-0.65,2.07-0.73,3.16
		C360.07,123.56,360.05,123.83,360.05,124.09z M367.24,116.21c1.27-1.27,2.42-1.91,3.46-1.91c0.74,0,1.11,0.38,1.11,1.15
		c-0.11,1.14-0.71,2.2-1.81,3.18c-1.1,0.98-2.15,1.47-3.16,1.47c-1.01,0-1.51-0.26-1.51-0.8
		C365.34,118.52,365.97,117.49,367.24,116.21z"/>
	<path class="st1" d="M375.07,121.05c0,0.44,0.07,0.66,0.22,0.66c0.02,0,0.08-0.07,0.16-0.18c0.37-0.53,1.32-2.31,2.88-5.39
		c0.32,0.13,0.62,0.2,0.91,0.2c0.93,0,1.85-0.37,2.78-1.11c-1.14,1.78-2,3.62-2.58,5.53c-0.58,1.91-0.87,3.62-0.87,5.13
		c0,2.23,0.75,3.34,2.26,3.34c0.85,0,1.79-0.42,2.84-1.25c1.05-0.84,1.94-1.76,2.68-2.77c0.58-0.79,1.29-1.87,2.12-3.2
		c-0.3,0.38-0.49,0.58-0.54,0.58c-0.11,0-0.16-0.16-0.16-0.5c0-0.33,0.18-0.87,0.54-1.61c0.19-0.4,0.42-0.86,0.69-1.39
		c-0.09,0.14-0.2,0.31-0.33,0.53c-0.36,0.6-0.78,1.3-1.27,2.11c-0.49,0.81-0.94,1.47-1.35,1.99c-0.41,0.52-0.93,1.01-1.55,1.47
		c-0.62,0.46-1.11,0.71-1.45,0.74c-0.53,0-0.79-0.38-0.79-1.15c0-0.77,0.22-1.77,0.66-3c0.44-1.23,0.83-2.21,1.19-2.94
		c0.36-0.73,0.9-1.81,1.63-3.24c0.73-1.43,1.29-2.29,1.69-2.59h-0.4l-2.03-0.04c-0.95,0-1.89,0.66-2.82,1.99
		c-0.11,0.03-0.27,0.04-0.48,0.04c-0.74,0-1.37-0.2-1.89-0.62c-0.52-0.41-0.77-0.97-0.77-1.69c0-0.32,0.03-0.56,0.08-0.72
		c-0.37-0.37-0.85-0.56-1.43-0.56c-0.58,0-1.04,0.21-1.37,0.64c-0.33,0.42-0.5,0.9-0.5,1.43c0,1.06,0.48,1.83,1.43,2.31
		c-0.03,0.08-0.23,0.48-0.62,1.19c-0.37,0.69-0.72,1.42-1.04,2.18c-0.01,0.02-0.02,0.05-0.03,0.07
		C375.24,120,375.07,120.61,375.07,121.05z"/>
	<path class="st1" d="M387.78,122.08c0,0.33,0.05,0.5,0.16,0.5c0.05,0,0.23-0.2,0.54-0.58c0.03-0.03,0.05-0.06,0.08-0.1
		c0.36-0.45,0.79-1.14,1.29-2.07v0.04c-0.85,2.31-1.27,4.35-1.27,6.13c0,2.12,0.75,3.18,2.26,3.18c0.82,0,1.73-0.41,2.74-1.23
		c1.01-0.82,1.87-1.71,2.58-2.67c2.17-2.92,3.27-4.88,3.3-5.89c0-0.42-0.08-0.64-0.24-0.64c-0.05,0-0.69,0.98-1.91,2.94
		c-0.48,0.82-0.86,1.41-1.15,1.75c-1.25,1.59-2.33,2.39-3.26,2.39c-0.64,0-0.95-0.5-0.95-1.51c0-1.49,1.05-4.83,3.14-10.03h3.42
		c0.21,0,0.46-0.17,0.75-0.5c0.29-0.33,0.44-0.56,0.44-0.7l-0.04-0.04h-4.01c1.61-3.71,3.07-6.02,4.37-6.92
		c-0.13,0.03-0.77,0.04-1.91,0.04c-1.96,0-3.89,2.29-5.8,6.88h-3.02c-0.11,0-0.26,0.15-0.46,0.44c-0.2,0.29-0.3,0.5-0.3,0.62
		c0,0.12,0.04,0.18,0.12,0.18h2.66c-0.4,0.98-0.91,2.07-1.53,3.26c-0.29,0.56-0.55,1.06-0.78,1.52c-0.27,0.53-0.5,0.99-0.69,1.39
		C387.96,121.21,387.78,121.75,387.78,122.08z"/>
	<path class="st1" d="M397.71,124.61c-0.37,0.53-0.56,1.11-0.56,1.75c0,1.11,0.5,1.96,1.51,2.53c1.01,0.57,2.25,0.86,3.73,0.86
		c2.57,0,4.66-0.65,6.28-1.95c1.62-1.3,3.42-3.61,5.4-6.92c0.26-0.45,0.4-0.92,0.4-1.41c0-0.49-0.08-0.74-0.24-0.74
		c-0.11,0-0.62,0.84-1.55,2.51c-0.4,0.66-0.67,1.1-0.83,1.31c-1.67,2.55-3.24,4.14-4.73,4.77c0.53-0.4,0.99-0.93,1.37-1.59
		c0.38-0.66,0.58-1.41,0.58-2.25c0-0.84-0.29-1.63-0.87-2.39c-0.58-0.76-1.22-1.35-1.91-1.77c-0.69-0.42-1.33-0.94-1.91-1.55
		c-0.58-0.61-0.87-1.26-0.87-1.95c0-0.69,0.28-1.25,0.85-1.67c0.57-0.42,1.16-0.64,1.77-0.64c0.61,0,1.08,0.1,1.41,0.3
		c0.33,0.2,0.5,0.5,0.5,0.9c0,0.4-0.3,0.78-0.91,1.15c-0.61,0.37-0.91,0.65-0.91,0.84c0,0.8,0.43,1.19,1.29,1.19
		c0.86,0,1.54-0.3,2.05-0.91c0.5-0.61,0.75-1.33,0.75-2.17c0-0.84-0.38-1.45-1.15-1.85c-0.77-0.4-1.71-0.6-2.82-0.6
		c-1.77,0-3.17,0.46-4.19,1.37c-1.02,0.92-1.53,2.04-1.53,3.38c0,1.34,0.54,2.53,1.63,3.56c0.45,0.42,0.9,0.85,1.35,1.27
		c0.45,0.42,0.83,0.91,1.15,1.47c0.32,0.56,0.48,1.2,0.48,1.93c0,0.73-0.32,1.4-0.97,2.01c-0.65,0.61-1.41,0.92-2.28,0.92
		c-1.48,0-2.22-0.66-2.22-1.99c0-0.66,0.25-1.25,0.75-1.75c-0.19-0.48-0.6-0.72-1.25-0.72
		C398.59,123.81,398.08,124.08,397.71,124.61z"/>
	<path class="st0" d="M343.9,135.25l-0.06,0.17c-0.45,1.3-0.8,2.13-1.06,2.56c-0.25,0.42-0.54,0.74-0.86,0.94h78.57v-3.67H343.9z"/>
	<path class="st0" d="M134.38,135.25v3.67h203.15l0.26-0.39c0.22-0.32,0.67-1.17,1.51-3.28H134.38z"/>
</g>
</svg>
